<svg width="99" height="32" viewBox="0 0 99 32" fill="none" xmlns="http://www.w3.org/2000/svg">
<g clip-path="url(#clip0_22286_162125)">
<rect x="0.0939941" width="32" height="32" fill="#E30513"/>
<path d="M23.4834 11.65C23.2956 11.4446 23.0669 11.2807 22.812 11.1688C22.5572 11.0569 22.2818 10.9994 22.0034 11H20.0934V10C20.0934 8.93913 19.672 7.92172 18.9219 7.17157C18.1717 6.42143 17.1543 6 16.0934 6C15.0326 6 14.0152 6.42143 13.265 7.17157C12.5149 7.92172 12.0934 8.93913 12.0934 10V11H10.1834C9.9051 10.9994 9.62969 11.0569 9.37484 11.1688C9.12 11.2807 8.89132 11.4446 8.70344 11.65C8.51889 11.8553 8.3777 12.0957 8.28834 12.3569C8.19899 12.6181 8.16331 12.8947 8.18344 13.17L8.94345 22.25C9.00629 23.0016 9.34989 23.7019 9.90583 24.2115C10.4618 24.7211 11.1893 25.0026 11.9434 25H20.2634C21.0176 25.0026 21.7451 24.7211 22.3011 24.2115C22.857 23.7019 23.2006 23.0016 23.2634 22.25L24.0234 13.17C24.0409 12.8933 24.002 12.6159 23.9092 12.3547C23.8164 12.0934 23.6716 11.8537 23.4834 11.65V11.65ZM14.0934 10C14.0934 9.46957 14.3042 8.96086 14.6792 8.58578C15.0543 8.21071 15.563 8 16.0934 8C16.6239 8 17.1326 8.21071 17.5077 8.58578C17.8827 8.96086 18.0934 9.46957 18.0934 10V11H14.0934V10Z" fill="white"/>
</g>
<path fill-rule="evenodd" clip-rule="evenodd" d="M47.722 8.26611C48.034 8.26611 48.313 8.33211 48.559 8.46411C48.805 8.59611 48.994 8.77311 49.126 8.99511C49.258 9.21711 49.324 9.49011 49.324 9.77811C49.324 10.0661 49.261 10.3241 49.135 10.5521C49.009 10.7801 48.82 10.9601 48.568 11.0921C48.316 11.2241 48.04 11.2901 47.704 11.2901C47.368 11.2901 47.08 11.2211 46.84 11.0831C46.6 10.9451 46.411 10.7651 46.273 10.5431C46.135 10.3211 46.066 10.0601 46.066 9.76011C46.066 9.46011 46.135 9.20211 46.273 8.98611C46.411 8.77011 46.603 8.59611 46.849 8.46411C47.095 8.33211 47.386 8.26611 47.722 8.26611ZM49.108 12.4061V21.8021H46.3V12.4061H49.108ZM41.503 18.7781C41.581 18.5021 41.62 18.1421 41.62 17.6981V9.36411H44.716V17.6981C44.716 18.6581 44.56 19.4651 44.248 20.1191C43.936 20.7731 43.456 21.2651 42.808 21.5951C42.16 21.9251 41.332 22.0901 40.324 22.0901C39.4 22.0901 38.623 21.9311 37.993 21.6131C37.363 21.2951 36.889 20.8361 36.571 20.2361C36.253 19.6361 36.094 18.9161 36.094 18.0761V17.8061H38.884C38.884 18.4421 38.995 18.9041 39.217 19.1921C39.439 19.4801 39.796 19.6241 40.288 19.6241C40.636 19.6241 40.906 19.5521 41.098 19.4081C41.29 19.2641 41.425 19.0541 41.503 18.7781ZM55.102 12.1721C56.086 12.1721 56.944 12.3821 57.676 12.8021C58.408 13.2221 58.966 13.8011 59.35 14.5391C59.734 15.2771 59.926 16.1081 59.926 17.1041C59.926 18.1001 59.731 18.9671 59.341 19.7051C58.951 20.4431 58.396 21.0191 57.676 21.4331C56.956 21.8471 56.104 22.0541 55.12 22.0541C54.136 22.0541 53.278 21.8471 52.546 21.4331C51.814 21.0191 51.256 20.4401 50.872 19.6961C50.488 18.9521 50.296 18.0761 50.296 17.1041C50.296 16.1321 50.488 15.2711 50.872 14.5211C51.256 13.7711 51.814 13.1921 52.546 12.7841C53.278 12.3761 54.118 12.1721 55.102 12.1721ZM56.2 19.6061C56.5 19.3781 56.725 19.0571 56.875 18.6431C57.025 18.2291 57.1 17.6981 57.1 17.1221C57.1 16.5461 57.028 16.0451 56.884 15.6191C56.74 15.1931 56.521 14.8601 56.227 14.6201C55.933 14.3801 55.558 14.2601 55.102 14.2601C54.694 14.2601 54.34 14.3711 54.04 14.5931C53.74 14.8151 53.512 15.1391 53.356 15.5651C53.2 15.9911 53.122 16.5341 53.122 17.1221C53.122 17.7101 53.2 18.2141 53.356 18.6341C53.512 19.0541 53.74 19.3781 54.04 19.6061C54.34 19.8341 54.7 19.9481 55.12 19.9481C55.54 19.9481 55.9 19.8341 56.2 19.6061ZM96.706 19.5611C96.892 19.6631 97.141 19.7141 97.453 19.7141C97.825 19.7141 98.167 19.6841 98.479 19.6241V21.7661C97.999 21.8861 97.447 21.9461 96.715 21.9461C95.983 21.9461 95.377 21.8351 94.897 21.6131C94.417 21.3911 94.042 21.0311 93.772 20.5331C93.502 20.0351 93.367 19.3781 93.367 18.5621V9.63411H96.193V12.4601H98.443V14.4401H96.193V18.1841C96.193 18.5561 96.232 18.8531 96.31 19.0751C96.388 19.2971 96.52 19.4591 96.706 19.5611ZM68.067 17.6081H68.103L70.695 9.36411H74.997V21.8021H72.135V13.0001H72.045L69.255 21.8021H66.879L64.071 13.0181H63.999V21.8021H61.119V9.36411H65.421L68.067 17.6081ZM89.263 14.0081C89.467 13.4201 89.794 12.9671 90.244 12.6491C90.694 12.3311 91.219 12.1721 91.819 12.1721C92.131 12.1721 92.395 12.2021 92.611 12.2621V14.7641C92.515 14.7281 92.398 14.7011 92.26 14.6831C92.122 14.6651 91.963 14.6561 91.783 14.6561C91.207 14.6561 90.736 14.7761 90.37 15.0161C90.004 15.2561 89.731 15.5921 89.551 16.0241C89.371 16.4561 89.281 16.9721 89.281 17.5721V21.8021H86.491V12.4061H89.119L89.173 14.0081H89.263ZM80.911 12.1541C81.871 12.1541 82.66 12.2891 83.278 12.5591C83.896 12.8291 84.349 13.2401 84.637 13.7921C84.925 14.3441 85.069 15.0401 85.069 15.8801V21.8021H82.567L82.441 20.6501H82.351C82.171 20.9261 81.958 21.1661 81.712 21.3701C81.466 21.5741 81.148 21.7391 80.758 21.8651C80.368 21.9911 79.927 22.0541 79.435 22.0541C78.775 22.0541 78.202 21.9371 77.716 21.7031C77.23 21.4691 76.855 21.1301 76.591 20.6861C76.327 20.2421 76.195 19.7141 76.195 19.1021C76.195 18.4061 76.375 17.8391 76.735 17.4011C77.095 16.9631 77.62 16.6331 78.31 16.4111C79 16.1891 79.843 16.0781 80.839 16.0781H82.351V15.6461C82.351 15.2621 82.303 14.9441 82.207 14.6921C82.111 14.4401 81.949 14.2511 81.721 14.1251C81.493 13.9991 81.187 13.9361 80.803 13.9361C80.335 13.9361 79.978 14.0201 79.732 14.1881C79.486 14.3561 79.327 14.5961 79.255 14.9081H76.573C76.669 14.3201 76.882 13.8191 77.212 13.4051C77.542 12.9911 78.01 12.6791 78.616 12.4691C79.222 12.2591 79.951 12.1541 80.911 12.1541ZM82.099 19.2821C82.267 18.9821 82.351 18.6281 82.351 18.2201V17.5361H81.307C80.839 17.5361 80.437 17.5811 80.101 17.6711C79.765 17.7611 79.507 17.9051 79.327 18.1031C79.147 18.3011 79.057 18.5681 79.057 18.9041C79.057 19.1921 79.12 19.4291 79.246 19.6151C79.372 19.8011 79.537 19.9421 79.741 20.0381C79.945 20.1341 80.191 20.1821 80.479 20.1821C80.851 20.1821 81.172 20.1071 81.442 19.9571C81.712 19.8071 81.931 19.5821 82.099 19.2821ZM78.9941 25.5101C78.6141 25.2301 78.0708 25.0901 77.3641 25.0901H74.1941V32.0001H77.4341C77.9074 32.0001 78.3274 31.9268 78.6941 31.7801C79.0608 31.6268 79.3474 31.4001 79.5541 31.1001C79.7674 30.8001 79.8741 30.4334 79.8741 30.0001C79.8741 29.5601 79.7574 29.1901 79.5241 28.8901C79.2974 28.5901 78.9708 28.3901 78.5441 28.2901V28.2701C78.8708 28.1434 79.1241 27.9534 79.3041 27.7001C79.4841 27.4468 79.5741 27.1434 79.5741 26.7901C79.5741 26.2168 79.3808 25.7901 78.9941 25.5101ZM78.0541 27.7201C77.8541 27.8801 77.5774 27.9601 77.2241 27.9601H75.4441V26.0901H77.1541C77.5474 26.0901 77.8441 26.1668 78.0441 26.3201C78.2508 26.4734 78.3541 26.7101 78.3541 27.0301C78.3541 27.3301 78.2541 27.5601 78.0541 27.7201ZM78.6241 29.9301C78.6241 30.6434 78.1774 31.0001 77.2841 31.0001H75.4441V28.8501H77.3041C77.7308 28.8501 78.0574 28.9434 78.2841 29.1301C78.5108 29.3101 78.6241 29.5768 78.6241 29.9301ZM86.2084 26.1501V25.0901H81.1484V32.0001H86.2784V30.9401H82.3984V28.9401H85.9184V27.9501H82.3984V26.1501H86.2084ZM92.517 25.0901V26.1501H90.327V32.0001H89.077V26.1501H86.897V25.0901H92.517ZM98.6123 32.0001L95.9823 25.0901H94.6823L92.0023 32.0001H93.2823L93.9223 30.2901H96.6823L97.3123 32.0001H98.6123ZM94.2523 29.3301L95.3123 26.4701H95.3323L96.3523 29.3301H94.2523Z" fill="black"/>
<defs>
<clipPath id="clip0_22286_162125">
<rect x="0.0939941" width="32" height="32" rx="16" fill="white"/>
</clipPath>
</defs>
</svg>
